<svg width="87" height="86" viewBox="0 0 87 86" fill="none" xmlns="http://www.w3.org/2000/svg">
<rect opacity="0.4" x="0.960938" width="86" height="86" rx="8" fill="#209DD9"/>
<path d="M41.9658 44.708C37.2393 44.708 25.4229 47.0713 23.0596 54.1611C25.4229 61.251 34.876 63.6143 41.9658 63.6143C49.0557 63.6143 58.5088 61.251 60.8721 54.1611C58.5088 47.0713 46.6924 44.708 41.9658 44.708Z" fill="white"/>
<circle cx="59.0349" cy="56.6736" r="9.82596" fill="#9ED1EA"/>
<path fill-rule="evenodd" clip-rule="evenodd" d="M59.0352 64.0489C63.1083 64.0489 66.4103 60.747 66.4103 56.6739C66.4103 52.6008 63.1083 49.2988 59.0352 49.2988C54.9621 49.2988 51.6602 52.6008 51.6602 56.6739C51.6602 60.747 54.9621 64.0489 59.0352 64.0489ZM59.7727 53.7239C59.7727 53.3165 59.4425 52.9864 59.0352 52.9864C58.6279 52.9864 58.2977 53.3165 58.2977 53.7239V55.9364H56.0852C55.6779 55.9364 55.3477 56.2666 55.3477 56.6739C55.3477 57.0812 55.6779 57.4114 56.0852 57.4114H58.2977V59.6239C58.2977 60.0312 58.6279 60.3614 59.0352 60.3614C59.4425 60.3614 59.7727 60.0312 59.7727 59.6239V57.4114H61.9852C62.3925 57.4114 62.7227 57.0812 62.7227 56.6739C62.7227 56.2666 62.3925 55.9364 61.9852 55.9364H59.7727V53.7239Z" fill="white"/>
<circle cx="41.9655" cy="29.8532" r="10.7272" fill="white"/>
</svg>
